# File created by Blade
# Date/Time:  Tue Apr 07 20:29:34 2015
# Frame Rate: 120.000 fps
#------------------------------------------------------
:FULLY-SPECIFIED
:DEGREES
1837
root 3.188839 33.576799 -4.687623 -7.533067 -18.484451 -29.683323
Spine 14.490568 -3.043372 19.604254
Head 10.940109 -16.653967 10.295791
LeftShoulder -18.087051 41.381147 23.668950
LeftArm 49.280836 -54.901564 -59.568546
LeftForeArm 4.191702 -0.000000 8.746998
LeftHand 9.274915 -0.000000 7.476360
LeftHandThumb1 -26.253704 0.000000 33.147579
RightShoulder -6.652815 -1.433589 -17.330731
RightArm 10.586170 6.463875 65.878461
RightForeArm 4.863454 -0.000000 16.835902
RightHand 4.245356 -0.000000 6.565668
RightHandThumb1 -24.326973 -0.000000 -32.862282
LeftUpLeg 7.990032 1.642612 22.553744
LeftLeg 19.597407 -0.000000 -0.000000
LeftFoot -14.045881 26.322171 -5.255576
LeftToeBase -8.694541 -0.000000 0.000000
RightUpLeg -96.230657 -33.427677 5.486451
RightLeg -0.997701 -0.000000 0.000000
RightFoot 43.538258 -13.160879 -5.177018
RightToeBase 31.265324 -0.000000 -0.000000
1838
root 3.171147 33.509901 -4.695052 -7.510416 -18.390813 -29.682348
Spine 14.520841 -3.306240 19.615396
Head 10.652635 -16.475821 10.262946
LeftShoulder -18.067487 41.057708 23.844603
LeftArm 49.203549 -55.406443 -59.368580
LeftForeArm 4.412427 -0.000000 8.844048
LeftHand 9.269841 -0.000000 7.778009
LeftHandThumb1 -26.253704 0.000000 33.147579
RightShoulder -6.534687 -1.177187 -17.298397
RightArm 10.502594 6.507132 65.893439
RightForeArm 4.739031 -0.000000 16.832022
RightHand 4.094360 -0.000000 6.823644
RightHandThumb1 -24.326973 -0.000000 -32.862282
LeftUpLeg 8.204691 1.745635 22.669951
LeftLeg 19.327090 -0.000000 -0.000000
LeftFoot -15.318524 25.658593 -6.066978
LeftToeBase -8.170649 -0.000000 0.000000
RightUpLeg -97.103144 -33.593160 5.641898
RightLeg -0.982611 -0.000000 0.000000
RightFoot 43.481938 -13.177474 -5.185257
RightToeBase 31.302439 -0.000000 -0.000000
1839
root 3.151141 33.442537 -4.706568 -7.540786 -18.297643 -29.670138
Spine 14.635792 -3.571155 19.565317
Head 10.302617 -16.313597 10.336810
LeftShoulder -18.120425 40.795935 23.923205
LeftArm 49.058255 -55.853855 -58.992314
LeftForeArm 4.454727 -0.000000 9.008983
LeftHand 9.260412 -0.000000 8.266598
LeftHandThumb1 -26.253704 0.000000 33.147579
RightShoulder -6.444877 -0.923331 -17.157114
RightArm 10.449386 6.596340 65.843973
RightForeArm 4.685273 -0.000000 16.835898
RightHand 3.893195 -0.000000 7.126373
RightHandThumb1 -24.326973 -0.000000 -32.862282
LeftUpLeg 8.353346 1.914032 22.798196
LeftLeg 19.265858 -0.000000 -0.000000
LeftFoot -16.619094 24.948259 -6.977469
LeftToeBase -7.806606 -0.000000 0.000000
RightUpLeg -97.872527 -33.737974 5.774628
RightLeg -0.923632 -0.000000 0.000000
RightFoot 43.418948 -13.204473 -5.205247
RightToeBase 31.325368 -0.000000 -0.000000
1840
root 3.133066 33.374909 -4.721116 -7.634942 -18.209122 -29.530120
Spine 14.831386 -3.812369 19.345785
Head 9.816228 -16.181182 10.496809
LeftShoulder -18.226631 40.533715 23.924930
LeftArm 49.053175 -56.368102 -58.721000
LeftForeArm 4.530829 -0.000000 9.121769
LeftHand 9.273175 0.000000 8.876719
LeftHandThumb1 -26.253704 0.000000 33.147579
RightShoulder -6.399832 -0.623519 -16.919857
RightArm 10.386010 6.671772 65.773553
RightForeArm 4.559741 -0.000000 16.867582
RightHand 3.819733 -0.000000 7.199593
RightHandThumb1 -24.326973 -0.000000 -32.862282
LeftUpLeg 8.359239 2.114203 22.785703
LeftLeg 19.438550 -0.000000 -0.000000
LeftFoot -17.616988 24.348178 -7.636859
LeftToeBase -7.144832 -0.000000 0.000000
RightUpLeg -98.555777 -33.851686 5.727826
RightLeg -0.767082 -0.000000 0.000000
RightFoot 43.342886 -13.280964 -5.257275
RightToeBase 31.381847 -0.000000 -0.000000
1841
root 3.116798 33.318602 -4.740478 -7.862526 -18.190306 -29.305839
Spine 15.207285 -3.974073 19.003019
Head 9.286536 -16.083261 10.766538
LeftShoulder -18.379850 40.317447 23.861952
LeftArm 49.265143 -56.894241 -58.675465
LeftForeArm 4.523889 -0.000000 9.345749
LeftHand 9.239372 -0.000000 9.627448
LeftHandThumb1 -26.253704 0.000000 33.147579
RightShoulder -6.336276 -0.339091 -16.547825
RightArm 10.283778 6.838267 65.664507
RightForeArm 4.391570 0.000000 17.007520
RightHand 3.748189 0.000000 7.121771
RightHandThumb1 -24.326973 -0.000000 -32.862282
LeftUpLeg 8.308542 2.449408 22.766832
LeftLeg 19.892569 -0.000000 -0.000000
LeftFoot -18.492555 23.549070 -8.403643
LeftToeBase -6.757319 -0.000000 0.000000
RightUpLeg -99.013953 -33.871167 5.537159
RightLeg -0.574229 -0.000000 0.000000
RightFoot 43.277234 -13.409094 -5.315910
RightToeBase 31.348528 -0.000000 -0.000000
